name C:\Users\antoi\Documents\MyRepositories\predsim_tutorial\Results\Case_0\motion.mot
datacolumns 124
datarows 4
range 0.27783929 0.31118001
endheader 
time	pelvis_tilt	pelvis_list	pelvis_rotation	pelvis_tx	pelvis_ty	pelvis_tz	hip_flexion_l	hip_adduction_l	hip_rotation_l	hip_flexion_r	hip_adduction_r	hip_rotation_r	knee_angle_l	knee_angle_r	ankle_angle_l	ankle_angle_r	subtalar_angle_l	subtalar_angle_r	mtp_angle_l	mtp_angle_r	lumbar_extension	lumbar_bending	lumbar_rotation	arm_flex_l	arm_add_l	arm_rot_l	arm_flex_r	arm_add_r	arm_rot_r	elbow_flex_l	elbow_flex_r	glut_med1_l/activation	glut_med2_l/activation	glut_med3_l/activation	glut_min1_l/activation	glut_min2_l/activation	glut_min3_l/activation	semimem_l/activation	semiten_l/activation	bifemlh_l/activation	bifemsh_l/activation	sar_l/activation	add_long_l/activation	add_brev_l/activation	add_mag1_l/activation	add_mag2_l/activation	add_mag3_l/activation	tfl_l/activation	pect_l/activation	grac_l/activation	glut_max1_l/activation	glut_max2_l/activation	glut_max3_l/activation	iliacus_l/activation	psoas_l/activation	quad_fem_l/activation	gem_l/activation	peri_l/activation	rect_fem_l/activation	vas_med_l/activation	vas_int_l/activation	vas_lat_l/activation	med_gas_l/activation	lat_gas_l/activation	soleus_l/activation	tib_post_l/activation	flex_dig_l/activation	flex_hal_l/activation	tib_ant_l/activation	per_brev_l/activation	per_long_l/activation	per_tert_l/activation	ext_dig_l/activation	ext_hal_l/activation	ercspn_l/activation	intobl_l/activation	extobl_l/activation	glut_med1_r/activation	glut_med2_r/activation	glut_med3_r/activation	glut_min1_r/activation	glut_min2_r/activation	glut_min3_r/activation	semimem_r/activation	semiten_r/activation	bifemlh_r/activation	bifemsh_r/activation	sar_r/activation	add_long_r/activation	add_brev_r/activation	add_mag1_r/activation	add_mag2_r/activation	add_mag3_r/activation	tfl_r/activation	pect_r/activation	grac_r/activation	glut_max1_r/activation	glut_max2_r/activation	glut_max3_r/activation	iliacus_r/activation	psoas_r/activation	quad_fem_r/activation	gem_r/activation	peri_r/activation	rect_fem_r/activation	vas_med_r/activation	vas_int_r/activation	vas_lat_r/activation	med_gas_r/activation	lat_gas_r/activation	soleus_r/activation	tib_post_r/activation	flex_dig_r/activation	flex_hal_r/activation	tib_ant_r/activation	per_brev_r/activation	per_long_r/activation	per_tert_r/activation	ext_dig_r/activation	ext_hal_r/activation	ercspn_r/activation	intobl_r/activation	extobl_r/activation	
          0.27783929	         -7.70113140	         -0.86711500	          4.61390771	          0.37826850	          0.92512710	          0.00355559	         18.92704888	          0.51878306	         -1.83411269	         11.27548193	          5.25370660	          7.42381416	        -53.77077019	        -12.08629307	         14.30539947	          9.49044613	          2.14873907	         -8.74204010	          2.35561477	          4.17639415	          2.95290184	          1.74176279	         -0.73303333	         -4.35003467	        -13.45024854	         15.19442766	         -5.08960289	        -13.44998020	         13.86978761	         68.06796065	          9.58182148	          0.05000017	          0.05000017	          0.05000016	          0.05000120	          0.05000088	          0.05000058	          0.05000056	          0.05000013	          0.05000006	          0.36390268	          0.28485120	          0.17017890	          0.20279812	          0.05000145	          0.05000057	          0.05000011	          0.49838180	          0.31967197	          0.12030477	          0.05000025	          0.05000010	          0.05000008	          0.13130919	          0.14429732	          0.10261861	          0.18069990	          0.05000068	          0.05513019	          0.05000024	          0.05000022	          0.05000017	          0.05000007	          0.05000015	          0.05000002	          0.05000018	          0.05000098	          0.05000068	          0.39624040	          0.19300319	          0.06922129	          0.58386187	          0.47037797	          0.56016314	          0.09639979	          0.06180739	          0.05861106	          0.39412943	          0.29562338	          0.27881216	          0.49042453	          0.48746089	          0.46108874	          0.07258777	          0.07250358	          0.06115568	          0.05000045	          0.05000108	          0.05000027	          0.05000051	          0.05000260	          0.05002943	          0.09346423	          0.07445904	          0.05000144	          0.05000117	          0.17628859	          0.10372248	          0.07370096	          0.05000015	          0.05000015	          0.05000066	          0.05000304	          0.27688275	          0.10133833	          0.11887762	          0.11790814	          0.09632989	          0.23407278	          0.22929584	          0.05643950	          0.27456778	          0.09943122	          0.08183349	          0.06782000	          0.05008476	          0.05022430	          0.05000810	          0.05000255	          0.05000569	          0.05000016	          0.05000016	          0.05000015	
          0.28895286	         -7.69750253	         -0.58811024	          4.17483639	          0.39127485	          0.92623112	          0.00390359	         20.61978794	          0.85317136	         -2.09609249	          9.87265762	          4.98053689	          7.82763134	        -53.20001463	        -11.05239691	         14.90952761	          9.27155714	          1.69055351	         -8.47487396	          2.00399652	          4.84747399	          2.85988129	          1.64829019	         -0.63755945	         -4.20561161	        -13.44999740	         14.83013310	         -4.24506487	        -13.44971800	         14.04885844	         65.02646163	         11.02232388	          0.05000016	          0.05000018	          0.05000017	          0.05000110	          0.05000086	          0.05000060	          0.05000036	          0.05000012	          0.05000006	          0.30703246	          0.30104205	          0.18183359	          0.19769306	          0.05000123	          0.05000051	          0.05000011	          0.47394691	          0.31157610	          0.10150376	          0.05000024	          0.05000010	          0.05000008	          0.13941230	          0.15237647	          0.11495107	          0.20996417	          0.05000078	          0.05067652	          0.05000028	          0.05000026	          0.05000020	          0.05000007	          0.05000016	          0.05000002	          0.05000021	          0.05000110	          0.05000077	          0.40505959	          0.19753438	          0.07909853	          0.54870299	          0.46302758	          0.53000881	          0.09362194	          0.06290115	          0.06451995	          0.37352621	          0.28138316	          0.26975331	          0.47007909	          0.47345733	          0.45262385	          0.07041412	          0.06732418	          0.05849413	          0.05000050	          0.05000122	          0.05000026	          0.05000050	          0.05000241	          0.05000608	          0.08429038	          0.11175609	          0.05000138	          0.05000117	          0.16631336	          0.09760783	          0.06496146	          0.05000016	          0.05000016	          0.05000066	          0.05000340	          0.28869193	          0.10116295	          0.10573530	          0.10463903	          0.08659706	          0.25755557	          0.25986148	          0.05269160	          0.27893987	          0.10285056	          0.07895516	          0.05722184	          0.05000615	          0.05000319	          0.05000931	          0.05000307	          0.05000781	          0.05000015	          0.05000018	          0.05000015	
          0.30006643	         -7.69432600	         -0.31020220	          3.71964577	          0.40429762	          0.92710406	          0.00423976	         22.24532435	          1.16159681	         -2.34719022	          8.46461854	          4.68552220	          8.21096997	        -52.38209489	         -9.99917352	         15.37138461	          9.05168770	          1.23475371	         -8.20535237	          1.70174062	          5.53814350	          2.77166789	          1.55576195	         -0.54107301	         -4.03337043	        -13.44983421	         14.49709489	         -3.43420114	        -13.44974503	         14.19893168	         61.86363681	         12.64805065	          0.05000016	          0.05000018	          0.05000017	          0.05000108	          0.05000086	          0.05000061	          0.05000023	          0.05000011	          0.05000005	          0.25904978	          0.31730199	          0.19577159	          0.19336264	          0.05000112	          0.05000048	          0.05000011	          0.44978770	          0.29812963	          0.08564096	          0.05000023	          0.05000010	          0.05000008	          0.14952478	          0.16274772	          0.13038993	          0.23398085	          0.05000078	          0.05000107	          0.05000029	          0.05000027	          0.05000019	          0.05000009	          0.05000019	          0.05000003	          0.05000025	          0.05000127	          0.05000092	          0.41071831	          0.20081009	          0.08875958	          0.50447243	          0.45782987	          0.49564566	          0.09098500	          0.06501288	          0.06914927	          0.35311437	          0.26705802	          0.25880652	          0.45262129	          0.46016787	          0.44165897	          0.06788963	          0.06220726	          0.05536180	          0.05000059	          0.05000150	          0.05000025	          0.05000049	          0.05000218	          0.05000569	          0.07587867	          0.14443364	          0.05000135	          0.05000119	          0.15714594	          0.09249511	          0.05681965	          0.05000018	          0.05000018	          0.05000070	          0.05000400	          0.29576419	          0.09439954	          0.09289742	          0.09245277	          0.07759156	          0.28160197	          0.29091320	          0.05000487	          0.28273157	          0.10658550	          0.07716190	          0.05127780	          0.05000313	          0.05000213	          0.05000831	          0.05000397	          0.05001862	          0.05000015	          0.05000017	          0.05000016	
          0.31118001	         -7.69182880	         -0.03408571	          3.25022941	          0.41735338	          0.92773482	          0.00456297	         23.79006424	          1.44298703	         -2.58723534	          7.05471558	          4.36990972	          8.57358868	        -51.30645318	         -8.93493881	         15.68469316	          8.83185713	          0.78752443	         -7.93162284	          1.44458846	          6.24636936	          2.68895591	          1.46427046	         -0.44391122	         -3.83556688	        -13.44991227	         14.20228645	         -2.66816111	        -13.44977856	         14.31236143	         58.58983185	         14.47227793	          0.05000016	          0.05000019	          0.05000018	          0.05000099	          0.05000082	          0.05000061	          0.05000015	          0.05000010	          0.05000005	          0.21856575	          0.33480670	          0.21130949	          0.19130954	          0.05000111	          0.05000046	          0.05000011	          0.42628766	          0.28001815	          0.07225720	          0.05000022	          0.05000010	          0.05000008	          0.16243944	          0.17505965	          0.15008866	          0.24952113	          0.05000083	          0.05000059	          0.05000027	          0.05000024	          0.05000016	          0.05000010	          0.05000022	          0.05000004	          0.05000031	          0.05000148	          0.05000110	          0.41429870	          0.20354196	          0.09783843	          0.45270538	          0.45606446	          0.45624383	          0.08945906	          0.06749787	          0.07235831	          0.33350094	          0.25160944	          0.24517796	          0.44275441	          0.44824646	          0.42945871	          0.06357622	          0.05766919	          0.05180476	          0.05000067	          0.05000169	          0.05000025	          0.05000047	          0.05000201	          0.05000516	          0.06578817	          0.18106787	          0.05000130	          0.05000120	          0.14778635	          0.08925444	          0.05071698	          0.05000020	          0.05000020	          0.05000069	          0.05000420	          0.30087189	          0.07965189	          0.08186942	          0.08109755	          0.07030853	          0.30599348	          0.32286158	          0.05000074	          0.28695771	          0.11070664	          0.07622249	          0.05318961	          0.05000507	          0.05000284	          0.05001277	          0.05000619	          0.05002235	          0.05000013	          0.05000019	          0.05000016	
